<svg width="65" height="22" viewBox="0 0 65 22" fill="none" xmlns="http://www.w3.org/2000/svg">
<path d="M26.8352 10.3807L25.4801 10.7642C25.3949 10.5384 25.2692 10.3189 25.103 10.1058C24.9411 9.88849 24.7195 9.70952 24.4382 9.56889C24.157 9.42827 23.7969 9.35795 23.358 9.35795C22.7571 9.35795 22.2564 9.49645 21.8558 9.77344C21.4595 10.0462 21.2614 10.3935 21.2614 10.8153C21.2614 11.1903 21.3977 11.4865 21.6705 11.7038C21.9432 11.9212 22.3693 12.1023 22.9489 12.2472L24.4062 12.6051C25.2841 12.8182 25.9382 13.1442 26.3686 13.5831C26.799 14.0178 27.0142 14.5781 27.0142 15.2642C27.0142 15.8267 26.8523 16.3295 26.5284 16.7727C26.2088 17.2159 25.7614 17.5653 25.1861 17.821C24.6108 18.0767 23.9418 18.2045 23.179 18.2045C22.1776 18.2045 21.3487 17.9872 20.6925 17.5526C20.0362 17.1179 19.6207 16.483 19.446 15.6477L20.8778 15.2898C21.0142 15.8182 21.272 16.2145 21.6513 16.4787C22.0348 16.7429 22.5355 16.875 23.1534 16.875C23.8565 16.875 24.4148 16.7259 24.8281 16.4276C25.2457 16.125 25.4545 15.7628 25.4545 15.3409C25.4545 15 25.3352 14.7145 25.0966 14.4844C24.858 14.25 24.4915 14.0753 23.9972 13.9602L22.3608 13.5767C21.4616 13.3636 20.8011 13.0334 20.3793 12.5859C19.9616 12.1342 19.7528 11.5696 19.7528 10.892C19.7528 10.3381 19.9084 9.84801 20.2195 9.42188C20.5348 8.99574 20.9631 8.66122 21.5043 8.41832C22.0497 8.17543 22.6676 8.05398 23.358 8.05398C24.3295 8.05398 25.0923 8.26705 25.6463 8.69318C26.2045 9.11932 26.6009 9.68182 26.8352 10.3807ZM30.0735 4.90909V18H28.565V4.90909H30.0735ZM36.1051 18.2045C35.1846 18.2045 34.392 17.9872 33.7273 17.5526C33.0625 17.1179 32.5511 16.5192 32.1932 15.7564C31.8352 14.9936 31.6562 14.1222 31.6562 13.142C31.6562 12.1449 31.8395 11.2649 32.206 10.5021C32.5767 9.73509 33.0923 9.13636 33.7528 8.70597C34.4176 8.27131 35.1932 8.05398 36.0795 8.05398C36.7699 8.05398 37.392 8.18182 37.946 8.4375C38.5 8.69318 38.9538 9.05114 39.3075 9.51136C39.6612 9.97159 39.8807 10.5085 39.9659 11.1222H38.4574C38.3423 10.6747 38.0866 10.2784 37.6903 9.93324C37.2983 9.58381 36.7699 9.40909 36.1051 9.40909C35.517 9.40909 35.0014 9.5625 34.5582 9.86932C34.1193 10.1719 33.7763 10.6001 33.5291 11.1541C33.2862 11.7038 33.1648 12.3494 33.1648 13.0909C33.1648 13.8494 33.2841 14.5099 33.5227 15.0724C33.7656 15.6349 34.1065 16.0717 34.5454 16.3828C34.9886 16.6939 35.5085 16.8494 36.1051 16.8494C36.4971 16.8494 36.853 16.7812 37.1726 16.6449C37.4922 16.5085 37.7628 16.3125 37.9844 16.0568C38.206 15.8011 38.3636 15.4943 38.4574 15.1364H39.9659C39.8807 15.7159 39.6697 16.2379 39.3331 16.7024C39.0007 17.1626 38.5596 17.5291 38.0099 17.8018C37.4645 18.0703 36.8295 18.2045 36.1051 18.2045ZM45.721 8.18182V9.46023H40.633V8.18182H45.721ZM42.1159 5.82955H43.6244V15.1875C43.6244 15.6136 43.6862 15.9332 43.8098 16.1463C43.9377 16.3551 44.0996 16.4957 44.2956 16.5682C44.4959 16.6364 44.7068 16.6705 44.9284 16.6705C45.0946 16.6705 45.231 16.6619 45.3375 16.6449C45.444 16.6236 45.5293 16.6065 45.5932 16.5938L45.9 17.9489C45.7977 17.9872 45.655 18.0256 45.4717 18.0639C45.2885 18.1065 45.0563 18.1278 44.775 18.1278C44.3489 18.1278 43.9313 18.0362 43.5222 17.853C43.1173 17.6697 42.7807 17.3906 42.5122 17.0156C42.248 16.6406 42.1159 16.1676 42.1159 15.5966V5.82955ZM48.3696 18.1023C48.0543 18.1023 47.7837 17.9893 47.5579 17.7635C47.332 17.5376 47.2191 17.267 47.2191 16.9517C47.2191 16.6364 47.332 16.3658 47.5579 16.1399C47.7837 15.9141 48.0543 15.8011 48.3696 15.8011C48.685 15.8011 48.9556 15.9141 49.1814 16.1399C49.4073 16.3658 49.5202 16.6364 49.5202 16.9517C49.5202 17.1605 49.4669 17.3523 49.3604 17.527C49.2581 17.7017 49.1196 17.8423 48.9449 17.9489C48.7745 18.0511 48.5827 18.1023 48.3696 18.1023ZM54.3964 18.2301C53.7743 18.2301 53.2097 18.1129 52.7026 17.8786C52.1955 17.6399 51.7928 17.2969 51.4945 16.8494C51.1962 16.3977 51.047 15.8523 51.047 15.2131C51.047 14.6506 51.1578 14.1946 51.3794 13.8452C51.601 13.4915 51.8972 13.2145 52.2679 13.0142C52.6386 12.8139 53.0477 12.6648 53.4952 12.5668C53.9469 12.4645 54.4007 12.3835 54.8567 12.3239C55.4533 12.2472 55.9369 12.1896 56.3077 12.1513C56.6827 12.1087 56.9554 12.0384 57.1259 11.9403C57.3006 11.8423 57.3879 11.6719 57.3879 11.429V11.3778C57.3879 10.7472 57.2153 10.2571 56.8702 9.90767C56.5293 9.55824 56.0115 9.38352 55.3169 9.38352C54.5967 9.38352 54.0321 9.54119 53.623 9.85653C53.2139 10.1719 52.9263 10.5085 52.7601 10.8665L51.3283 10.3551C51.5839 9.75852 51.9249 9.29403 52.351 8.96165C52.7814 8.625 53.2501 8.39062 53.7572 8.25852C54.2686 8.12216 54.7714 8.05398 55.2658 8.05398C55.5811 8.05398 55.9433 8.09233 56.3524 8.16903C56.7658 8.24148 57.1642 8.39276 57.5477 8.62287C57.9355 8.85298 58.2572 9.20028 58.5129 9.66477C58.7686 10.1293 58.8964 10.7514 58.8964 11.5312V18H57.3879V16.6705H57.3112C57.2089 16.8835 57.0385 17.1115 56.7999 17.3544C56.5612 17.5973 56.2437 17.804 55.8474 17.9744C55.4511 18.1449 54.9675 18.2301 54.3964 18.2301ZM54.6266 16.875C55.2232 16.875 55.726 16.7578 56.1351 16.5234C56.5484 16.2891 56.8595 15.9865 57.0683 15.6158C57.2814 15.245 57.3879 14.8551 57.3879 14.446V13.0653C57.324 13.142 57.1834 13.2124 56.9661 13.2763C56.753 13.3359 56.5058 13.3892 56.2246 13.4361C55.9476 13.4787 55.677 13.517 55.4128 13.5511C55.1528 13.581 54.9419 13.6065 54.78 13.6278C54.3879 13.679 54.0214 13.7621 53.6805 13.8771C53.3439 13.9879 53.0712 14.1562 52.8624 14.3821C52.6578 14.6037 52.5555 14.9062 52.5555 15.2898C52.5555 15.8139 52.7494 16.2102 53.1372 16.4787C53.5293 16.7429 54.0257 16.875 54.6266 16.875ZM60.9298 18V8.18182H62.4383V18H60.9298ZM61.6969 6.54545C61.4028 6.54545 61.1493 6.44531 60.9362 6.24503C60.7274 6.04474 60.623 5.80398 60.623 5.52273C60.623 5.24148 60.7274 5.00071 60.9362 4.80043C61.1493 4.60014 61.4028 4.5 61.6969 4.5C61.9909 4.5 62.2423 4.60014 62.4511 4.80043C62.6642 5.00071 62.7707 5.24148 62.7707 5.52273C62.7707 5.80398 62.6642 6.04474 62.4511 6.24503C62.2423 6.44531 61.9909 6.54545 61.6969 6.54545Z" fill="white"/>
<path d="M1 17.3L7 11.3L1 5.3" stroke="white" stroke-width="2"/>
<path d="M7.49997 17H15.5" stroke="white" stroke-width="2"/>
</svg>
