<svg width="65" height="22" viewBox="0 0 65 22" fill="none" xmlns="http://www.w3.org/2000/svg">
<path d="M27.3352 10.3807L25.9801 10.7642C25.8949 10.5384 25.7692 10.3189 25.603 10.1058C25.4411 9.88849 25.2195 9.70952 24.9382 9.56889C24.657 9.42827 24.2969 9.35795 23.858 9.35795C23.2571 9.35795 22.7564 9.49645 22.3558 9.77344C21.9595 10.0462 21.7614 10.3935 21.7614 10.8153C21.7614 11.1903 21.8977 11.4865 22.1705 11.7038C22.4432 11.9212 22.8693 12.1023 23.4489 12.2472L24.9062 12.6051C25.7841 12.8182 26.4382 13.1442 26.8686 13.5831C27.299 14.0178 27.5142 14.5781 27.5142 15.2642C27.5142 15.8267 27.3523 16.3295 27.0284 16.7727C26.7088 17.2159 26.2614 17.5653 25.6861 17.821C25.1108 18.0767 24.4418 18.2045 23.679 18.2045C22.6776 18.2045 21.8487 17.9872 21.1925 17.5526C20.5362 17.1179 20.1207 16.483 19.946 15.6477L21.3778 15.2898C21.5142 15.8182 21.772 16.2145 22.1513 16.4787C22.5348 16.7429 23.0355 16.875 23.6534 16.875C24.3565 16.875 24.9148 16.7259 25.3281 16.4276C25.7457 16.125 25.9545 15.7628 25.9545 15.3409C25.9545 15 25.8352 14.7145 25.5966 14.4844C25.358 14.25 24.9915 14.0753 24.4972 13.9602L22.8608 13.5767C21.9616 13.3636 21.3011 13.0334 20.8793 12.5859C20.4616 12.1342 20.2528 11.5696 20.2528 10.892C20.2528 10.3381 20.4084 9.84801 20.7195 9.42188C21.0348 8.99574 21.4631 8.66122 22.0043 8.41832C22.5497 8.17543 23.1676 8.05398 23.858 8.05398C24.8295 8.05398 25.5923 8.26705 26.1463 8.69318C26.7045 9.11932 27.1009 9.68182 27.3352 10.3807ZM30.5735 4.90909V18H29.065V4.90909H30.5735ZM36.6051 18.2045C35.6846 18.2045 34.892 17.9872 34.2273 17.5526C33.5625 17.1179 33.0511 16.5192 32.6932 15.7564C32.3352 14.9936 32.1562 14.1222 32.1562 13.142C32.1562 12.1449 32.3395 11.2649 32.706 10.5021C33.0767 9.73509 33.5923 9.13636 34.2528 8.70597C34.9176 8.27131 35.6932 8.05398 36.5795 8.05398C37.2699 8.05398 37.892 8.18182 38.446 8.4375C39 8.69318 39.4538 9.05114 39.8075 9.51136C40.1612 9.97159 40.3807 10.5085 40.4659 11.1222H38.9574C38.8423 10.6747 38.5866 10.2784 38.1903 9.93324C37.7983 9.58381 37.2699 9.40909 36.6051 9.40909C36.017 9.40909 35.5014 9.5625 35.0582 9.86932C34.6193 10.1719 34.2763 10.6001 34.0291 11.1541C33.7862 11.7038 33.6648 12.3494 33.6648 13.0909C33.6648 13.8494 33.7841 14.5099 34.0227 15.0724C34.2656 15.6349 34.6065 16.0717 35.0454 16.3828C35.4886 16.6939 36.0085 16.8494 36.6051 16.8494C36.9971 16.8494 37.353 16.7812 37.6726 16.6449C37.9922 16.5085 38.2628 16.3125 38.4844 16.0568C38.706 15.8011 38.8636 15.4943 38.9574 15.1364H40.4659C40.3807 15.7159 40.1697 16.2379 39.8331 16.7024C39.5007 17.1626 39.0596 17.5291 38.5099 17.8018C37.9645 18.0703 37.3295 18.2045 36.6051 18.2045ZM46.221 8.18182V9.46023H41.133V8.18182H46.221ZM42.6159 5.82955H44.1244V15.1875C44.1244 15.6136 44.1862 15.9332 44.3098 16.1463C44.4377 16.3551 44.5996 16.4957 44.7956 16.5682C44.9959 16.6364 45.2068 16.6705 45.4284 16.6705C45.5946 16.6705 45.731 16.6619 45.8375 16.6449C45.944 16.6236 46.0293 16.6065 46.0932 16.5938L46.4 17.9489C46.2977 17.9872 46.155 18.0256 45.9717 18.0639C45.7885 18.1065 45.5563 18.1278 45.275 18.1278C44.8489 18.1278 44.4313 18.0362 44.0222 17.853C43.6173 17.6697 43.2807 17.3906 43.0122 17.0156C42.748 16.6406 42.6159 16.1676 42.6159 15.5966V5.82955ZM48.8696 18.1023C48.5543 18.1023 48.2837 17.9893 48.0579 17.7635C47.832 17.5376 47.7191 17.267 47.7191 16.9517C47.7191 16.6364 47.832 16.3658 48.0579 16.1399C48.2837 15.9141 48.5543 15.8011 48.8696 15.8011C49.185 15.8011 49.4556 15.9141 49.6814 16.1399C49.9073 16.3658 50.0202 16.6364 50.0202 16.9517C50.0202 17.1605 49.9669 17.3523 49.8604 17.527C49.7581 17.7017 49.6196 17.8423 49.4449 17.9489C49.2745 18.0511 49.0827 18.1023 48.8696 18.1023ZM54.8964 18.2301C54.2743 18.2301 53.7097 18.1129 53.2026 17.8786C52.6955 17.6399 52.2928 17.2969 51.9945 16.8494C51.6962 16.3977 51.547 15.8523 51.547 15.2131C51.547 14.6506 51.6578 14.1946 51.8794 13.8452C52.101 13.4915 52.3972 13.2145 52.7679 13.0142C53.1386 12.8139 53.5477 12.6648 53.9952 12.5668C54.4469 12.4645 54.9007 12.3835 55.3567 12.3239C55.9533 12.2472 56.4369 12.1896 56.8077 12.1513C57.1827 12.1087 57.4554 12.0384 57.6259 11.9403C57.8006 11.8423 57.8879 11.6719 57.8879 11.429V11.3778C57.8879 10.7472 57.7153 10.2571 57.3702 9.90767C57.0293 9.55824 56.5115 9.38352 55.8169 9.38352C55.0967 9.38352 54.5321 9.54119 54.123 9.85653C53.7139 10.1719 53.4263 10.5085 53.2601 10.8665L51.8283 10.3551C52.0839 9.75852 52.4249 9.29403 52.851 8.96165C53.2814 8.625 53.7501 8.39062 54.2572 8.25852C54.7686 8.12216 55.2714 8.05398 55.7658 8.05398C56.0811 8.05398 56.4433 8.09233 56.8524 8.16903C57.2658 8.24148 57.6642 8.39276 58.0477 8.62287C58.4355 8.85298 58.7572 9.20028 59.0129 9.66477C59.2686 10.1293 59.3964 10.7514 59.3964 11.5312V18H57.8879V16.6705H57.8112C57.7089 16.8835 57.5385 17.1115 57.2999 17.3544C57.0612 17.5973 56.7437 17.804 56.3474 17.9744C55.9511 18.1449 55.4675 18.2301 54.8964 18.2301ZM55.1266 16.875C55.7232 16.875 56.226 16.7578 56.6351 16.5234C57.0484 16.2891 57.3595 15.9865 57.5683 15.6158C57.7814 15.245 57.8879 14.8551 57.8879 14.446V13.0653C57.824 13.142 57.6834 13.2124 57.4661 13.2763C57.253 13.3359 57.0058 13.3892 56.7246 13.4361C56.4476 13.4787 56.177 13.517 55.9128 13.5511C55.6528 13.581 55.4419 13.6065 55.28 13.6278C54.8879 13.679 54.5214 13.7621 54.1805 13.8771C53.8439 13.9879 53.5712 14.1562 53.3624 14.3821C53.1578 14.6037 53.0555 14.9062 53.0555 15.2898C53.0555 15.8139 53.2494 16.2102 53.6372 16.4787C54.0293 16.7429 54.5257 16.875 55.1266 16.875ZM61.4298 18V8.18182H62.9383V18H61.4298ZM62.1969 6.54545C61.9028 6.54545 61.6493 6.44531 61.4362 6.24503C61.2274 6.04474 61.123 5.80398 61.123 5.52273C61.123 5.24148 61.2274 5.00071 61.4362 4.80043C61.6493 4.60014 61.9028 4.5 62.1969 4.5C62.4909 4.5 62.7423 4.60014 62.9511 4.80043C63.1642 5.00071 63.2707 5.24148 63.2707 5.52273C63.2707 5.80398 63.1642 6.04474 62.9511 6.24503C62.7423 6.44531 62.4909 6.54545 62.1969 6.54545Z" fill="black"/>
<path d="M1.5 17.3L7.5 11.3L1.5 5.3" stroke="black" stroke-width="2"/>
<path d="M7.99997 17H16" stroke="black" stroke-width="2"/>
</svg>
